<svg xmlns="http://www.w3.org/2000/svg" xmlns:se="http://svg-edit.googlecode.com" xmlns:xlink="http://www.w3.org/1999/xlink" xmlns:dc="http://purl.org/dc/elements/1.1/" xmlns:cc="http://creativecommons.org/ns#" xmlns:rdf="http://www.w3.org/1999/02/22-rdf-syntax-ns#" xmlns:inkscape="http://www.inkscape.org/namespaces/inkscape" width="20.524589984527807" height="20.81967198762223" style=""><g class="currentLayer" style=""><title>Layer 1</title><path fill="#ffffff" stroke="none" stroke-width="2" stroke-linejoin="round" stroke-dashoffset="" fill-rule="nonzero" marker-start="" marker-mid="" marker-end="" id="svg_1" d="M-0.08033026252136166,7.234253282417474 L-0.08033026252136166,7.234253282417474 C-0.08033026252136166,3.2526926363166453 3.058306569414014,0.024999322247503907 6.930010500504554,0.024999322247503907 L6.930010500504554,0.024999322247503907 C8.789267671070597,0.024999322247503907 10.5723760737061,0.7845430950488775 11.887069032815138,2.136540455241682 C13.20176340340139,3.488538299276624 13.940351263530552,5.322239623071019 13.940351263530552,7.234253282417474 L13.940351263530552,7.234253282417474 C13.940351263530552,11.215813444676083 10.801714431595386,14.443507242587392 6.930010500504554,14.443507242587392 L6.930010500504554,14.443507242587392 C3.058307039906861,14.443507242587392 -0.08033026252136166,11.215813444676083 -0.08033026252136166,7.234253282417474 zM3.4248401189918605,7.234253282417474 L3.4248401189918605,7.234253282417474 C3.4248401189918605,9.22503312162541 4.994159475944823,10.838880262502187 6.930010500504554,10.838880262502187 C8.865862936543088,10.838880262502187 10.435180882017786,9.22503312162541 10.435180882017786,7.234253282417474 C10.435180882017786,5.243473443209526 8.865861995558333,3.6296263023321673 6.930010500504554,3.6296263023321673 L6.930010500504554,3.6296263023321673 C4.994159475944823,3.6296263023321673 3.4248401189918605,5.243473927051851 3.4248401189918605,7.234253282417474 z" style="color: rgb(0, 0, 0);" class="" fill-opacity="1"/><rect fill="#ffffff" stroke="none" stroke-width="2" stroke-linejoin="round" stroke-dashoffset="" fill-rule="nonzero" x="13.497588292217776" y="9.281860225199583" width="3.138540292626594" height="12.02504705981588" style="color: rgb(0, 0, 0);" class="" transform="rotate(-45.807918548583984 15.066858291625978,15.294383049011232) " id="svg_2" fill-opacity="1"/></g></svg>
